<svg xmlns="http://www.w3.org/2000/svg" xmlns:xlink="http://www.w3.org/1999/xlink" width="130.676" height="97.733" viewBox="0 0 130.676 97.733">
  <defs>
    <linearGradient id="linear-gradient" x1="0.059" y1="0.042" x2="0.825" y2="0.535" gradientUnits="objectBoundingBox">
      <stop offset="0" stop-color="#1c89ff"/>
      <stop offset="0.297" stop-color="#f567ff"/>
      <stop offset="0.589" stop-color="#ff964d"/>
      <stop offset="1" stop-color="#faff5c"/>
    </linearGradient>
  </defs>
  <g id="p_4_ic" transform="translate(-0.865 -0.471)">
    <g id="编组_4" data-name="编组 4" transform="translate(0.703)">
      <path id="椭圆形" d="M0,27C0,11.979,26.671,0,59.5,0S119,11.979,119,27,92.33,54,59.5,54,0,42.021,0,27Z" transform="matrix(0.914, -0.407, 0.407, 0.914, 0.162, 48.873)" fill="#fff"/>
      <path id="路径_3" data-name="路径 3" d="M5.748.509A3,3,0,0,0,2.885,5L30.607,53.014a3,3,0,0,0,5.365-.34L54.384,8.741a3,3,0,0,0-2.5-4.148Z" transform="translate(45.528 10.568) rotate(30)" fill="url(#linear-gradient)"/>
      <path id="星形" d="M4,6.008C2,6.008,0,8,0,8S1.992,6,1.992,4,0,0,0,0,2,1.992,4,1.992,8,0,8,0,6.008,2,6.008,4,8,8,8,8,6,6.008,4,6.008Z" transform="matrix(0.695, 0.719, -0.719, 0.695, 95.879, 9.828)" fill="#fff"/>
    </g>
  </g>
</svg>
