<svg xmlns="http://www.w3.org/2000/svg" width="1195.612" height="217.735" viewBox="0 0 1195.612 217.735">
  <g id="mao_logo" transform="translate(0.003 -0.007)">
    <path id="Fill_1" data-name="Fill 1" d="M104.829,217.735a118.384,118.384,0,0,1-30.857-3.663,73.7,73.7,0,0,1-12.433-4.565,57.988,57.988,0,0,1-10.421-6.374,55.947,55.947,0,0,1-8.6-8.3A68.649,68.649,0,0,1,35.3,184.317,106.4,106.4,0,0,1,25.022,156.8c-4.249-18.027-8.477-36.958-12.925-57.874C7.891,79.171,4.405,61.938,1.441,46.236a81.77,81.77,0,0,1-1.4-11.8,47.756,47.756,0,0,1,.57-9.894,29.45,29.45,0,0,1,2.528-8.018,22.226,22.226,0,0,1,4.474-6.172,26.543,26.543,0,0,1,6.5-4.545,43.739,43.739,0,0,1,8.795-3.233C29.49.866,37.73,0,47.4,0A117.188,117.188,0,0,1,73.293,2.573a58.863,58.863,0,0,1,19.189,7.778,53.067,53.067,0,0,1,14.291,14.19,89.825,89.825,0,0,1,10.735,21.694c5.73,15.884,11.7,33.673,17.754,52.872,6.235,19.777,11.941,39.186,16.959,57.687,2.959,10.573,4.333,19.833,4.081,27.522a41.455,41.455,0,0,1-1.6,10.516,26.987,26.987,0,0,1-4.057,8.3,26.338,26.338,0,0,1-6.9,6.374,41.323,41.323,0,0,1-9.941,4.565C126.187,216.5,116.439,217.735,104.829,217.735ZM54.718,27.744c-6.137,0-10.294,1.3-12.357,3.853-1.543,1.912-1.957,4.58-1.233,7.931,1.6,7.976,3.525,16.9,5.884,27.3,2.293,10.149,4.862,20.968,7.634,32.154s5.735,22.634,8.79,33.99c3.139,11.644,6.145,22.4,8.934,31.981,2.806,10.035,10.384,15.123,22.526,15.123,6.4,0,10.785-1.464,13.047-4.351,1.957-2.5,2.369-6.122,1.223-10.772-2.174-9.578-4.815-20.337-7.851-31.981-2.756-10.55-5.764-21.668-9.2-33.99-3.191-11.4-6.3-22.215-9.253-32.154-3.1-10.376-5.9-19.3-8.573-27.3C71.8,31.6,65.393,27.744,54.718,27.744Z" transform="translate(845.753 0.007)" fill="#fff"/>
    <path id="Fill_3" data-name="Fill 3" d="M67.446,0h-55.6c8.111,1.807,14.7,8.6,12.839,22.9L0,212.357H109.634l1.908-40.467H51.224Z" transform="translate(429.256 2.221)" fill="#fff"/>
    <path id="Fill_5" data-name="Fill 5" d="M147.73,212.343H100.309l2.616-51.687H65.06L47.422,212.342H0L74.227,22.222c2.627-7.052,2.875-12.657.738-16.659A11.36,11.36,0,0,0,67.215,0h80.8l-.289,212.342ZM109.547,30.2,77.812,123.239h27.022Z" transform="translate(268.757 2.227)" fill="#fff"/>
    <path id="Fill_7" data-name="Fill 7" d="M132.564.217,97.6,108,55.634.188V0H0C8.27,1.807,15.5,8.6,14.949,22.9L7.72,212.357H55.157l.289-126.145,45.528,126.145L138.333,86.241l8.458,126.116h47.436L172.352,0h-39.8Z" transform="translate(543.174 2.215)" fill="#fff"/>
    <path id="Fill_9" data-name="Fill 9" d="M132.42,212.358H82.164l8.978-80.212h-.029l3.629-32.689L81.036,132.144l-5.827,13.88L47.393,212.357H0l85.359-187.5c3.195-7.013,3.648-12.779,1.349-17.139C84.613,3.743,80.242,1.076,74.067,0H147.86c9.855,0,18.14.855,24.625,2.541A39.912,39.912,0,0,1,181,5.721a22.156,22.156,0,0,1,5.983,4.457,18.467,18.467,0,0,1,3.7,6.055,25.947,25.947,0,0,1,1.534,7.839c.3,5.808-.883,12.92-3.5,21.137-1.42,4.488-2.743,8.506-3.933,11.942-1.215,3.513-2.469,7.025-3.73,10.438-1.184,3.209-2.66,7.04-4.786,12.42a111.67,111.67,0,0,1-7.384,15.4,80.854,80.854,0,0,1-8.924,12.517,64.193,64.193,0,0,1-11.02,9.929A68.834,68.834,0,0,1,135.6,125.2l-3.181,87.152ZM123.773,30.217,96.044,96.361h12.4c11.859,0,20.056-4.806,24.361-14.284a344.49,344.49,0,0,0,15.268-38.791c1.285-3.907,1.151-6.974-.4-9.116A8.61,8.61,0,0,0,143.2,31.2a25.429,25.429,0,0,0-7.689-.986Z" transform="translate(-0.003 2.218)" fill="#fff"/>
    <path id="Fill_11" data-name="Fill 11" d="M147.8,0l33.687,109.359L116.892,0H86.906l22.525,109.359L56,0H0C9.253,1.807,20.1,8.6,27.2,22.9a.7.7,0,0,0-.043-.1l91.113,189.412h48.853L138.1,90.9,205.72,212.212h48.853L187.6,0Z" transform="translate(941.036 2.221)" fill="#fff"/>
    <path id="Fill_13" data-name="Fill 13" d="M0,0C8.559,1.807,16.858,8.6,18.564,22.9L41.176,212.357H150.492l-8.183-40.467H82.28l-9.2-59.248h54.333l-6.925-34.67H67.706L60.289,30.217h53.393L107.566,0H0Z" transform="translate(717.834 2.221)" fill="#fff"/>
    <path id="Fill_15" data-name="Fill 15" d="M56.848,0c7.735,1.807,12.882,8.6,8,22.9L0,212.357H109.345l10.5-40.467H59.827l18.145-59.248h54.318l9.08-34.67H88.583l14.646-47.754h53.378L164.443,0H56.848Z" transform="translate(149.271 2.221)" fill="#fff"/>
  </g>
</svg>
