<svg xmlns="http://www.w3.org/2000/svg" width="220" height="40.001" viewBox="0 0 220 40.001">
  <g id="编组" transform="translate(0 0)">
    <path id="Fill_1" data-name="Fill 1" d="M19.6,40c-4.321,0-7.7-.9-10.043-2.682-2.3-1.743-3.938-4.607-4.88-8.513C3.885,25.5,3.094,22.019,2.262,18.173,1.474,14.54.823,11.374.269,8.494-.326,5.36.051,3.2,1.424,1.9,2.764.622,5.2,0,8.863,0c3.686,0,6.444.622,8.429,1.9a12.518,12.518,0,0,1,4.679,6.592c1.075,2.929,2.192,6.2,3.319,9.713,1.162,3.62,2.229,7.186,3.172,10.6,1.112,3.906,1.013,6.77-.3,8.513C26.828,39.1,23.946,40,19.6,40ZM10.231,5.1a2.913,2.913,0,0,0-2.319.718A1.656,1.656,0,0,0,7.69,7.261c.3,1.467.671,3.155,1.1,5.015.432,1.879.913,3.866,1.427,5.908.528,2.089,1.081,4.19,1.643,6.244.586,2.136,1.148,4.113,1.67,5.875.525,1.844,1.942,2.778,4.212,2.778a3,3,0,0,0,2.449-.812,2.228,2.228,0,0,0,.219-1.967c-.411-1.78-.905-3.757-1.468-5.875-.518-1.948-1.081-3.99-1.72-6.244-.584-2.053-1.166-4.04-1.73-5.908-.585-1.922-1.109-3.563-1.6-5.015C13.424,5.8,12.227,5.1,10.231,5.1Z" transform="translate(155.385)"/>
    <path id="Fill_3" data-name="Fill 3" d="M12.558,0H2.2C3.715.334,4.943,1.589,4.6,4.231l-4.6,35H20.414l.355-7.476H9.538Z" transform="translate(78.462 0.769)"/>
    <path id="Fill_5" data-name="Fill 5" d="M26.87,39.232H18.245l.476-9.55H11.834l-3.208,9.55H0L13.5,4.106a3.828,3.828,0,0,0,.128-3.091A2.071,2.071,0,0,0,12.226,0h14.7L26.87,39.231ZM19.925,5.58,14.153,22.768h4.915Z" transform="translate(50 0.769)"/>
    <path id="Fill_7" data-name="Fill 7" d="M24.151.04,17.782,19.952,10.135.035V0H0C1.507.334,2.824,1.589,2.724,4.231l-1.317,35h8.642l.053-23.3,8.294,23.3,6.806-23.3,1.541,23.3h8.642L31.4,0H24.148Z" transform="translate(100 0.769)"/>
    <path id="Fill_9" data-name="Fill 9" d="M8.722,39.232H0l15.71-34.64a3.589,3.589,0,0,0,.246-3.169A3.061,3.061,0,0,0,13.631,0H27.212c3.628,0,6.05.633,7.2,1.88a3.969,3.969,0,0,1,.964,2.567,11.4,11.4,0,0,1-.645,3.9c-.259.823-.5,1.565-.724,2.206-.228.662-.459,1.311-.687,1.929-.221.6-.5,1.33-.881,2.294a17.489,17.489,0,0,1-3,5.158,12.117,12.117,0,0,1-4.483,3.191l-.586,16.1H15.122l1.652-14.819h-.006l.668-6.039-2.523,6.039-1.072,2.564L8.722,39.231ZM22.779,5.583,17.676,17.8h2.282a4.483,4.483,0,0,0,4.484-2.639A63.791,63.791,0,0,0,27.252,8a1.838,1.838,0,0,0-.075-1.686,2.674,2.674,0,0,0-2.237-.728H22.779Z" transform="translate(0 0.769)"/>
    <path id="Fill_11" data-name="Fill 11" d="M27.243,0l6.209,20.217L21.545,0H16.019L20.17,20.217,10.321,0H0A7.364,7.364,0,0,1,5.013,4.234.13.13,0,0,0,5,4.215L21.8,39.231h9L25.455,16.8,37.918,39.231h9L34.579,0Z" transform="translate(173.077 0.769)"/>
    <path id="Fill_13" data-name="Fill 13" d="M0,0C1.575.334,3.1,1.589,3.416,4.231l4.161,35H27.692l-1.506-7.476H15.14L13.448,20.809h10l-1.274-6.4H12.459L11.094,5.582h9.825L19.794,0H0Z" transform="translate(132.308 0.769)"/>
    <path id="Fill_15" data-name="Fill 15" d="M10.371,0c1.411.334,2.35,1.589,1.459,4.231L0,39.231H19.948l1.915-7.476H10.914l3.31-10.946h9.909l1.656-6.4h-9.63l2.672-8.822H28.57L30,0H10.371Z" transform="translate(27.692 0.769)"/>
  </g>
</svg>
